<svg width="350" height="120" viewBox="0 0 350 120" fill="none" xmlns="http://www.w3.org/2000/svg"><defs><linearGradient id="gold1" x1="0%" y1="0%" x2="100%" y2="100%"><stop offset="0%" style="stop-color:#f4d03f;stop-opacity:1" /><stop offset="50%" style="stop-color:#c9a227;stop-opacity:1" /><stop offset="100%" style="stop-color:#b8960c;stop-opacity:1" /></linearGradient><linearGradient id="gold2" x1="0%" y1="0%" x2="100%" y2="100%"><stop offset="0%" style="stop-color:#d4af37;stop-opacity:1" /><stop offset="100%" style="stop-color:#8b7500;stop-opacity:1" /></linearGradient><filter id="shadow"><feDropShadow dx="2" dy="4" stdDeviation="3" flood-opacity="0.3"/></filter></defs><g transform="translate(15, 15)" filter="url(#shadow)"><path d="M35 0 L70 17.5 L70 52.5 L35 70 L0 52.5 L0 17.5 Z" fill="url(#gold1)" stroke="#ffffff" stroke-width="2"/><path d="M35 0 L35 35 L70 52.5" stroke="#ffffff" stroke-width="1.5" opacity="0.7"/><path d="M35 35 L0 52.5" stroke="#ffffff" stroke-width="1.5" opacity="0.7"/><path d="M35 35 L35 70" stroke="#ffffff" stroke-width="1.5" opacity="0.7"/><path d="M70 17.5 L105 35 L105 70 L70 87.5 L35 70" fill="url(#gold2)" stroke="#ffffff" stroke-width="2"/><path d="M35 0 L70 17.5 L70 -17.5 L35 -35" fill="#e6c200" stroke="#ffffff" stroke-width="2"/></g><text x="130" y="50" font-family="Georgia, serif" font-size="32" font-weight="bold" fill="#ffffff" letter-spacing="4" filter="url(#shadow)">DARIUS</text><text x="130" y="85" font-family="Georgia, serif" font-size="32" font-weight="bold" fill="url(#gold1)" letter-spacing="4" filter="url(#shadow)">CUBED</text><line x1="130" y1="60" x2="320" y2="60" stroke="#c9a227" stroke-width="1" opacity="0.5"/></svg>
