<svg width="200" height="200" viewBox="0 0 200 200" fill="none" xmlns="http://www.w3.org/2000/svg"><g transform="translate(50, 30)"><path d="M50 0 L100 25 L100 75 L50 100 L0 75 L0 25 Z" fill="#c9a227" stroke="#ffffff" stroke-width="3"/><path d="M50 0 L100 25 L100 0 L50 -25 Z" fill="#d4af37" stroke="#ffffff" stroke-width="2"/><path d="M100 25 L150 50 L150 100 L100 75 Z" fill="#b8960c" stroke="#ffffff" stroke-width="2"/><path d="M25 20 L25 80 L45 80 L55 75 L60 65 L60 35 L55 25 L45 20 Z" fill="#ffffff" opacity="0.9"/><path d="M35 30 L35 70 L45 70 L50 65 L50 35 L45 30 Z" fill="#c9a227"/><path d="M115 40 L115 85 L125 85 L135 80 L140 70 L140 55 L135 45 L125 40 Z" fill="#ffffff" opacity="0.9"/><path d="M125 50 L125 75 L130 75 L133 70 L133 55 L130 50 Z" fill="#b8960c"/><path d="M50 0 L50 50 L100 75" stroke="#ffffff" stroke-width="1" opacity="0.6"/><path d="M50 50 L0 75" stroke="#ffffff" stroke-width="1" opacity="0.6"/><path d="M50 50 L50 100" stroke="#ffffff" stroke-width="1" opacity="0.6"/></g></svg>
