<svg width="200" height="200" viewBox="0 0 200 200" fill="none" xmlns="http://www.w3.org/2000/svg"><g transform="translate(30, 40)"><path d="M40 0 L80 20 L80 60 L40 80 L0 60 L0 20 Z" fill="#c9a227" stroke="#ffffff" stroke-width="2"/><path d="M40 0 L40 40 L80 60" stroke="#ffffff" stroke-width="1" opacity="0.8"/><path d="M40 40 L0 60" stroke="#ffffff" stroke-width="1" opacity="0.8"/><path d="M40 40 L40 80" stroke="#ffffff" stroke-width="1" opacity="0.8"/></g><g transform="translate(70, 70)"><path d="M40 0 L80 20 L80 60 L40 80 L0 60 L0 20 Z" fill="#c9a227" stroke="#ffffff" stroke-width="2"/><path d="M40 0 L40 40 L80 60" stroke="#ffffff" stroke-width="1" opacity="0.8"/><path d="M40 40 L0 60" stroke="#ffffff" stroke-width="1" opacity="0.8"/><path d="M40 40 L40 80" stroke="#ffffff" stroke-width="1" opacity="0.8"/></g><g transform="translate(50, 100)"><path d="M40 0 L80 20 L80 60 L40 80 L0 60 L0 20 Z" fill="#c9a227" stroke="#ffffff" stroke-width="2"/><path d="M40 0 L40 40 L80 60" stroke="#ffffff" stroke-width="1" opacity="0.8"/><path d="M40 40 L0 60" stroke="#ffffff" stroke-width="1" opacity="0.8"/><path d="M40 40 L40 80" stroke="#ffffff" stroke-width="1" opacity="0.8"/></g></svg>
