<svg width="350" height="100" viewBox="0 0 350 100" fill="none" xmlns="http://www.w3.org/2000/svg"><defs><linearGradient id="cubeGold" x1="0%" y1="0%" x2="100%" y2="100%"><stop offset="0%" style="stop-color:#f4d03f" /><stop offset="50%" style="stop-color:#c9a227" /><stop offset="100%" style="stop-color:#8b7500" /></linearGradient></defs><g transform="translate(10, 15)"><path d="M20 0 L40 10 L40 30 L20 40 L0 30 L0 10 Z" fill="#c9a227" stroke="#ffffff" stroke-width="1.5"/><path d="M20 0 L20 20 L40 30" stroke="#ffffff" stroke-width="1" opacity="0.5"/><path d="M20 20 L0 30" stroke="#ffffff" stroke-width="1" opacity="0.5"/><path d="M20 20 L20 40" stroke="#ffffff" stroke-width="1" opacity="0.5"/><path d="M40 10 L60 20 L60 40 L40 50 L20 40" fill="#d4af37" stroke="#ffffff" stroke-width="1.5"/><path d="M20 0 L40 10 L40 -10 L20 -20" fill="#e6c200" stroke="#ffffff" stroke-width="1.5"/></g><text x="80" y="35" font-family="Helvetica, Arial, sans-serif" font-size="28" font-weight="bold" fill="#ffffff" letter-spacing="5">DARIUS</text><text x="80" y="65" font-family="Helvetica, Arial, sans-serif" font-size="28" font-weight="bold" fill="url(#cubeGold)" letter-spacing="5">CUBED</text><rect x="80" y="42" width="200" height="2" fill="#c9a227" opacity="0.6"/></svg>
